<svg version="1.1" viewBox="0.0 0.0 1200.0 1200.0" fill="none" stroke="none" stroke-linecap="square" stroke-miterlimit="10" xmlns:xlink="http://www.w3.org/1999/xlink" xmlns="http://www.w3.org/2000/svg"><clipPath id="g63a1e5387f_0_997.0"><path d="m0 0l1200.0 0l0 1200.0l-1200.0 0l0 -1200.0z" clip-rule="nonzero"/></clipPath><g clip-path="url(#g63a1e5387f_0_997.0)"><path fill="#1c003f" d="m0 0l1200.0 0l0 1200.0l-1200.0 0z" fill-rule="evenodd"/><path fill="#ffffff" d="m977.2703 -1008.26764l15.433044 15.464539l-1985.5118 1985.0708l-15.433044 -15.464539z" fill-rule="evenodd"/><path fill="#ffffff" d="m993.2703 -992.26764l15.433044 15.464539l-1985.5118 1985.0708l-15.433044 -15.464539z" fill-rule="evenodd"/><path fill="#ffffff" d="m1009.2703 -976.26764l15.433044 15.464539l-1985.5118 1985.0709l-15.433044 -15.4646z" fill-rule="evenodd"/><path fill="#ffffff" d="m1025.2703 -960.26764l15.433105 15.464539l-1985.5118 1985.0709l-15.433044 -15.4646z" fill-rule="evenodd"/><path fill="#ffffff" d="m1041.2703 -944.26764l15.433105 15.464539l-1985.5118 1985.0709l-15.433044 -15.4646z" fill-rule="evenodd"/><path fill="#ffffff" d="m1057.2703 -928.26764l15.433105 15.464539l-1985.5118 1985.0709l-15.433044 -15.4646z" fill-rule="evenodd"/><path fill="#ffffff" d="m1073.2703 -912.26764l15.433105 15.464539l-1985.5118 1985.0709l-15.433044 -15.4646z" fill-rule="evenodd"/><path fill="#ffffff" d="m1089.2703 -896.26764l15.433105 15.464539l-1985.5118 1985.0709l-15.433044 -15.4646z" fill-rule="evenodd"/><path fill="#ffffff" d="m1105.2703 -880.26764l15.433105 15.464539l-1985.5118 1985.0709l-15.433044 -15.4646z" fill-rule="evenodd"/><path fill="#ffffff" d="m1121.2703 -864.26764l15.433105 15.464539l-1985.5118 1985.0709l-15.433044 -15.4646z" fill-rule="evenodd"/><path fill="#ffffff" d="m1137.2703 -848.26764l15.433105 15.464539l-1985.5118 1985.0709l-15.433044 -15.4646z" fill-rule="evenodd"/><path fill="#ffffff" d="m1153.2703 -832.26764l15.433105 15.464539l-1985.5118 1985.0709l-15.433044 -15.4646z" fill-rule="evenodd"/><path fill="#ffffff" d="m1169.2703 -816.26764l15.433105 15.464539l-1985.5118 1985.0709l-15.433044 -15.4646z" fill-rule="evenodd"/><path fill="#ffffff" d="m1185.2703 -800.26764l15.433105 15.464539l-1985.5118 1985.0709l-15.433044 -15.4646z" fill-rule="evenodd"/><path fill="#ffffff" d="m1201.2703 -784.26764l15.433105 15.464539l-1985.5118 1985.0709l-15.433044 -15.4646z" fill-rule="evenodd"/><path fill="#ffffff" d="m1217.2703 -768.26764l15.433105 15.464539l-1985.5118 1985.0709l-15.433044 -15.4646z" fill-rule="evenodd"/><path fill="#ffffff" d="m1233.2703 -752.26764l15.433105 15.464539l-1985.5118 1985.0709l-15.433044 -15.4646z" fill-rule="evenodd"/><path fill="#ffffff" d="m1249.2703 -736.26764l15.433105 15.464539l-1985.5118 1985.0709l-15.433044 -15.4646z" fill-rule="evenodd"/><path fill="#ffffff" d="m1265.2703 -720.26764l15.433105 15.464539l-1985.5118 1985.0709l-15.433044 -15.4646z" fill-rule="evenodd"/><path fill="#ffffff" d="m1281.2703 -704.26764l15.433105 15.464539l-1985.5118 1985.0709l-15.433044 -15.4646z" fill-rule="evenodd"/><path fill="#ffffff" d="m1297.2703 -688.26764l15.433105 15.464539l-1985.5118 1985.0709l-15.433044 -15.4646z" fill-rule="evenodd"/><path fill="#ffffff" d="m1313.2703 -672.26764l15.433105 15.464539l-1985.5118 1985.0709l-15.433044 -15.4646z" fill-rule="evenodd"/><path fill="#ffffff" d="m1329.2703 -656.26764l15.433105 15.464539l-1985.5118 1985.0709l-15.433044 -15.4646z" fill-rule="evenodd"/><path fill="#ffffff" d="m1345.2703 -640.26764l15.433105 15.464539l-1985.5118 1985.0709l-15.433044 -15.4646z" fill-rule="evenodd"/><path fill="#ffffff" d="m1361.2703 -624.26764l15.433105 15.464539l-1985.5118 1985.0709l-15.433044 -15.4646z" fill-rule="evenodd"/><path fill="#ffffff" d="m1377.2703 -608.26764l15.433105 15.464539l-1985.5118 1985.0709l-15.433044 -15.4646z" fill-rule="evenodd"/><path fill="#ffffff" d="m1393.2703 -592.26764l15.433105 15.464539l-1985.5118 1985.0709l-15.433044 -15.4646z" fill-rule="evenodd"/><path fill="#ffffff" d="m1409.2703 -576.26764l15.433105 15.464539l-1985.5118 1985.0709l-15.433044 -15.4646z" fill-rule="evenodd"/><path fill="#ffffff" d="m1425.2703 -560.26764l15.433105 15.464539l-1985.5118 1985.0709l-15.433044 -15.4646z" fill-rule="evenodd"/><path fill="#ffffff" d="m1441.2703 -544.26764l15.433105 15.464539l-1985.5118 1985.0709l-15.433044 -15.4646z" fill-rule="evenodd"/><path fill="#ffffff" d="m1457.2703 -528.26764l15.433105 15.464539l-1985.5118 1985.0709l-15.433044 -15.4646z" fill-rule="evenodd"/><path fill="#ffffff" d="m1473.2703 -512.26764l15.433105 15.464539l-1985.5118 1985.0709l-15.433075 -15.4646z" fill-rule="evenodd"/><path fill="#ffffff" d="m1489.2703 -496.26767l15.433105 15.464569l-1985.5118 1985.0709l-15.433075 -15.4646z" fill-rule="evenodd"/><path fill="#ffffff" d="m1505.2703 -480.26767l15.433105 15.464569l-1985.5118 1985.0709l-15.433075 -15.4646z" fill-rule="evenodd"/><path fill="#ffffff" d="m1521.2703 -464.26767l15.433105 15.464569l-1985.5118 1985.0709l-15.433075 -15.4646z" fill-rule="evenodd"/><path fill="#ffffff" d="m1537.2703 -448.26767l15.433105 15.464569l-1985.5118 1985.0709l-15.433075 -15.4646z" fill-rule="evenodd"/><path fill="#ffffff" d="m1553.2703 -432.26767l15.433105 15.464569l-1985.5118 1985.0709l-15.433075 -15.4646z" fill-rule="evenodd"/><path fill="#ffffff" d="m1569.2703 -416.26767l15.433105 15.464569l-1985.5118 1985.0709l-15.433075 -15.4646z" fill-rule="evenodd"/><path fill="#ffffff" d="m1585.2703 -400.26767l15.433105 15.464569l-1985.5118 1985.0709l-15.433075 -15.4646z" fill-rule="evenodd"/><path fill="#ffffff" d="m1601.2703 -384.26767l15.433105 15.464569l-1985.5118 1985.0709l-15.433075 -15.4646z" fill-rule="evenodd"/><path fill="#ffffff" d="m1617.2703 -368.26767l15.433105 15.464569l-1985.5118 1985.0709l-15.433075 -15.4646z" fill-rule="evenodd"/><path fill="#ffffff" d="m1633.2703 -352.26767l15.433105 15.464569l-1985.5118 1985.0709l-15.433075 -15.4646z" fill-rule="evenodd"/><path fill="#ffffff" d="m1649.2703 -336.26767l15.433105 15.464569l-1985.5118 1985.0709l-15.433075 -15.4646z" fill-rule="evenodd"/><path fill="#ffffff" d="m1665.2703 -320.26767l15.433105 15.464569l-1985.5118 1985.0709l-15.433075 -15.4646z" fill-rule="evenodd"/><path fill="#ffffff" d="m1681.2703 -304.26767l15.433105 15.464569l-1985.5118 1985.0709l-15.433075 -15.4646z" fill-rule="evenodd"/><path fill="#ffffff" d="m1697.2703 -288.26767l15.433105 15.464569l-1985.5118 1985.0709l-15.433075 -15.4646z" fill-rule="evenodd"/><path fill="#ffffff" d="m1713.2703 -272.26767l15.433105 15.464569l-1985.5118 1985.0709l-15.433075 -15.4646z" fill-rule="evenodd"/><path fill="#ffffff" d="m1729.2703 -256.26767l15.433105 15.464569l-1985.5118 1985.0709l-15.433075 -15.4646z" fill-rule="evenodd"/><path fill="#ffffff" d="m1745.2703 -240.26767l15.433105 15.464569l-1985.5118 1985.0709l-15.433075 -15.4646z" fill-rule="evenodd"/><path fill="#ffffff" d="m1761.2703 -224.26767l15.433105 15.464569l-1985.5118 1985.0709l-15.433075 -15.4646z" fill-rule="evenodd"/><path fill="#ffffff" d="m1777.2703 -208.26767l15.433105 15.464569l-1985.5118 1985.0709l-15.433075 -15.4646z" fill-rule="evenodd"/><path fill="#ffffff" d="m1793.2703 -192.26767l15.433105 15.464569l-1985.5118 1985.0709l-15.433075 -15.4646z" fill-rule="evenodd"/><path fill="#ffffff" d="m1809.2703 -176.26767l15.433105 15.464569l-1985.5118 1985.0709l-15.433075 -15.4646z" fill-rule="evenodd"/><path fill="#ffffff" d="m1825.2703 -160.26767l15.433105 15.464569l-1985.5118 1985.0709l-15.433075 -15.4646z" fill-rule="evenodd"/><path fill="#ffffff" d="m1841.2703 -144.26767l15.433105 15.464569l-1985.5118 1985.0709l-15.433075 -15.4646z" fill-rule="evenodd"/><path fill="#ffffff" d="m1857.2703 -128.26767l15.433105 15.464569l-1985.5118 1985.0709l-15.433075 -15.4646z" fill-rule="evenodd"/><path fill="#ffffff" d="m1873.2703 -112.26766l15.433105 15.464561l-1985.5118 1985.0709l-15.433075 -15.4646z" fill-rule="evenodd"/><path fill="#ffffff" d="m1889.2703 -96.26766l15.433105 15.464561l-1985.5118 1985.0709l-15.433075 -15.4646z" fill-rule="evenodd"/><path fill="#ffffff" d="m1905.2703 -80.26766l15.433105 15.464561l-1985.5118 1985.0709l-15.433075 -15.4646z" fill-rule="evenodd"/><path fill="#ffffff" d="m1921.2703 -64.26766l15.433105 15.464565l-1985.5118 1985.0709l-15.433075 -15.4646z" fill-rule="evenodd"/><path fill="#ffffff" d="m1937.2703 -48.267666l15.433105 15.464569l-1985.5118 1985.0709l-15.433071 -15.4646z" fill-rule="evenodd"/><path fill="#ffffff" d="m1953.2703 -32.267666l15.433105 15.464567l-1985.5118 1985.0709l-15.433069 -15.4646z" fill-rule="evenodd"/><path fill="#ffffff" d="m1969.2703 -16.267666l15.433105 15.464568l-1985.5118 1985.0709l-15.433071 -15.4646z" fill-rule="evenodd"/><path fill="#ffffff" d="m1985.2703 -0.2676651l15.433105 15.464567l-1985.5118 1985.0709l-15.43307 -15.4646z" fill-rule="evenodd"/><path fill="#ffffff" d="m2001.2703 15.732335l15.433105 15.464566l-1985.5118 1985.0709l-15.43307 -15.4646z" fill-rule="evenodd"/><path fill="#ffffff" d="m2017.2703 31.732334l15.433105 15.464569l-1985.5118 1985.0709l-15.433073 -15.4646z" fill-rule="evenodd"/><path fill="#ffffff" d="m2033.2703 47.732334l15.433105 15.464569l-1985.5118 1985.0709l-15.433071 -15.4646z" fill-rule="evenodd"/><path fill="#ffffff" d="m2049.2703 63.732334l15.433105 15.464565l-1985.5118 1985.0709l-15.433071 -15.4646z" fill-rule="evenodd"/><path fill="#ffffff" d="m2065.2703 79.73234l15.433105 15.464561l-1985.5118 1985.0709l-15.433075 -15.4646z" fill-rule="evenodd"/><path fill="#ffffff" d="m2081.2703 95.73234l15.433105 15.464561l-1985.5118 1985.0709l-15.433075 -15.4646z" fill-rule="evenodd"/><path fill="#ffffff" d="m2097.2703 111.73234l15.433105 15.464561l-1985.5118 1985.0709l-15.433075 -15.4646z" fill-rule="evenodd"/><path fill="#ffffff" d="m2113.2703 127.73234l15.433105 15.464561l-1985.5118 1985.0709l-15.433075 -15.4646z" fill-rule="evenodd"/><path fill="#ffffff" d="m2129.2703 143.73233l15.433105 15.464569l-1985.5118 1985.0709l-15.433075 -15.4646z" fill-rule="evenodd"/><path fill="#ffffff" d="m2145.2703 159.73233l15.433105 15.464569l-1985.5118 1985.0709l-15.433075 -15.4646z" fill-rule="evenodd"/><path fill="#ffffff" d="m2161.2703 175.73233l15.433105 15.464569l-1985.5118 1985.0709l-15.433075 -15.4646z" fill-rule="evenodd"/><path fill="#ffffff" d="m2177.2703 191.73233l15.433105 15.464569l-1985.5118 1985.0709l-15.433075 -15.4646z" fill-rule="evenodd"/><path fill="#1c003f" d="m339.40158 444.97806l0 0c0 -42.80945 34.70392 -77.51337 77.51337 -77.51337l366.17014 0c20.5578 0 40.27362 8.166565 54.81018 22.703156c14.536621 14.53656 22.703186 34.25238 22.703186 54.81021l0 310.04416c0 42.80945 -34.70392 77.51337 -77.51337 77.51337l-366.17014 0l0 0c-42.80945 0 -77.51337 -34.70392 -77.51337 -77.51337z" fill-rule="evenodd"/><path fill="#ffffff" d="m339.40158 463.74802l521.1969 0l0 23.748047l-521.1969 0z" fill-rule="evenodd"/><path fill="#ffffff" d="m371.8819 564.79834l0 0c0 -9.720947 7.8804016 -17.60138 17.60141 -17.60138l72.32474 0l0 0c4.6681824 0 9.145172 1.8544312 12.446075 5.1553345c3.3009033 3.3009033 5.1553345 7.777893 5.1553345 12.446045l0 70.4035c0 9.721008 -7.880432 17.60138 -17.60141 17.60138l-72.32474 0c-9.721008 0 -17.60141 -7.880371 -17.60141 -17.60138z" fill-rule="evenodd"/><path fill="#ffffff" d="m488.1181 564.79834l0 0c0 -9.720947 7.880432 -17.60138 17.60141 -17.60138l72.32474 0l0 0c4.668213 0 9.145203 1.8544312 12.446106 5.1553345c3.3009033 3.3009033 5.1553345 7.777893 5.1553345 12.446045l0 70.4035c0 9.721008 -7.880432 17.60138 -17.60144 17.60138l-72.32474 0c-9.720978 0 -17.60141 -7.880371 -17.60141 -17.60138z" fill-rule="evenodd"/><path fill="#ffffff" d="m604.3543 564.79834l0 0c0 -9.720947 7.880432 -17.60138 17.60144 -17.60138l72.32477 0l0 0c4.668152 0 9.145142 1.8544312 12.446045 5.1553345c3.3009033 3.3009033 5.1553345 7.777893 5.1553345 12.446045l0 70.4035c0 9.721008 -7.880432 17.60138 -17.60138 17.60138l-72.32477 0c-9.721008 0 -17.60144 -7.880371 -17.60144 -17.60138z" fill-rule="evenodd"/><path fill="#ffffff" d="m720.5906 564.79834l0 0c0 -9.720947 7.880371 -17.60138 17.60138 -17.60138l72.32477 0l0 0c4.668152 0 9.145142 1.8544312 12.446045 5.1553345c3.3009033 3.3009033 5.1553345 7.777893 5.1553345 12.446045l0 70.4035c0 9.721008 -7.880432 17.60138 -17.60138 17.60138l-72.32477 0c-9.721008 0 -17.60138 -7.880371 -17.60138 -17.60138z" fill-rule="evenodd"/><path fill="#ffffff" d="m371.8819 693.29706l0 0c0 -9.721008 7.8804016 -17.60144 17.60141 -17.60144l72.32474 0l0 0c4.6681824 0 9.145172 1.8544312 12.446075 5.1553345c3.3009033 3.3009033 5.1553345 7.777893 5.1553345 12.446106l0 70.4035c0 9.720947 -7.880432 17.60138 -17.60141 17.60138l-72.32474 0c-9.721008 0 -17.60141 -7.880432 -17.60141 -17.60138z" fill-rule="evenodd"/><path fill="#ffffff" d="m488.1181 693.29706l0 0c0 -9.721008 7.880432 -17.60144 17.60141 -17.60144l72.32474 0l0 0c4.668213 0 9.145203 1.8544312 12.446106 5.1553345c3.3009033 3.3009033 5.1553345 7.777893 5.1553345 12.446106l0 70.4035c0 9.720947 -7.880432 17.60138 -17.60144 17.60138l-72.32474 0c-9.720978 0 -17.60141 -7.880432 -17.60141 -17.60138z" fill-rule="evenodd"/><path fill="#ffffff" d="m604.3543 693.29706l0 0c0 -9.721008 7.880432 -17.60144 17.60144 -17.60144l72.32477 0l0 0c4.668152 0 9.145142 1.8544312 12.446045 5.1553345c3.3009033 3.3009033 5.1553345 7.777893 5.1553345 12.446106l0 70.4035c0 9.720947 -7.880432 17.60138 -17.60138 17.60138l-72.32477 0c-9.721008 0 -17.60144 -7.880432 -17.60144 -17.60138z" fill-rule="evenodd"/><path fill="#ffffff" d="m720.5906 693.29706l0 0c0 -9.721008 7.880371 -17.60144 17.60138 -17.60144l72.32477 0l0 0c4.668152 0 9.145142 1.8544312 12.446045 5.1553345c3.3009033 3.3009033 5.1553345 7.777893 5.1553345 12.446106l0 70.4035c0 9.720947 -7.880432 17.60138 -17.60138 17.60138l-72.32477 0c-9.721008 0 -17.60138 -7.880432 -17.60138 -17.60138z" fill-rule="evenodd"/></g></svg>