<svg width="1080" height="1080" viewBox="0 0 1080 1080" fill="none" xmlns="http://www.w3.org/2000/svg">
<path fill-rule="evenodd" clip-rule="evenodd" d="M187 69C187 82.8071 175.807 94 162 94C148.193 94 137 82.8071 137 69C137 55.1929 148.193 44 162 44C175.807 44 187 55.1929 187 69ZM569.5 151C590.211 151 607 134.211 607 113.5C607 92.7893 590.211 76 569.5 76C548.789 76 532 92.7893 532 113.5C532 134.211 548.789 151 569.5 151ZM694.998 252.503L694.999 252.341L695 252.213C695 252.142 695 252.071 695 252C695 207.817 659.183 172 615 172C570.817 172 535 207.817 535 252C535 255.518 535.227 258.984 535.667 262.382C536.543 267.121 537 272.007 537 277C537 321.183 501.183 357 457 357C434.474 357 414.122 347.69 399.583 332.708C385.523 320.435 367.13 313 347 313C302.817 313 267 348.817 267 393C267 418.861 279.271 441.856 298.307 456.48C318.132 471.04 331 494.517 331 521C331 564.523 296.245 599.928 252.974 600.976L252.965 601.054C251.981 601.018 250.993 601 250 601C205.817 601 170 636.817 170 681C170 725.183 205.817 761 250 761C255.194 761 260.272 760.505 265.19 759.56C312.83 927.211 467.076 1050 650 1050C870.914 1050 1050 870.914 1050 650C1050 444.299 894.729 274.863 694.998 252.503ZM510 261C510 296.898 480.898 326 445 326C409.102 326 380 296.898 380 261C380 225.101 409.102 196 445 196C480.898 196 510 225.101 510 261ZM238 579C273.898 579 303 549.898 303 514C303 478.102 273.898 449 238 449C202.101 449 173 478.102 173 514C173 549.898 202.101 579 238 579ZM273 299.5C273 320.211 256.211 337 235.5 337C214.789 337 198 320.211 198 299.5C198 278.789 214.789 262 235.5 262C256.211 262 273 278.789 273 299.5ZM117 502.5C117 523.211 100.211 540 79.5 540C58.7893 540 42 523.211 42 502.5C42 481.789 58.7893 465 79.5 465C100.211 465 117 481.789 117 502.5ZM87 357C100.807 357 112 345.807 112 332C112 318.193 100.807 307 87 307C73.1929 307 62 318.193 62 332C62 345.807 73.1929 357 87 357ZM180 209C180 222.807 168.807 234 155 234C141.193 234 130 222.807 130 209C130 195.193 141.193 184 155 184C168.807 184 180 195.193 180 209ZM323 185C336.807 185 348 173.807 348 160C348 146.193 336.807 135 323 135C309.193 135 298 146.193 298 160C298 173.807 309.193 185 323 185ZM397 94C410.807 94 422 82.8071 422 69C422 55.1929 410.807 44 397 44C383.193 44 372 55.1929 372 69C372 82.8071 383.193 94 397 94Z" fill="url(#paint0_linear)"/>
<path d="M474.148 482H646.648C685.648 482 719.982 489.167 749.648 503.5C779.648 517.5 802.815 537.667 819.148 564C835.815 590.333 844.148 621.333 844.148 657C844.148 692.667 835.815 723.667 819.148 750C802.815 776.333 779.648 796.667 749.648 811C719.982 825 685.648 832 646.648 832H474.148V482ZM641.648 740C666.982 740 687.148 732.833 702.148 718.5C717.482 703.833 725.148 683.333 725.148 657C725.148 630.667 717.482 610.333 702.148 596C687.148 581.333 666.982 574 641.648 574H592.148V740H641.648Z" fill="white"/>
<defs>
<linearGradient id="paint0_linear" x1="555" y1="547" x2="1027.5" y2="911" gradientUnits="userSpaceOnUse">
<stop stop-color="#E83588"/>
<stop offset="1" stop-color="#613D96"/>
</linearGradient>
</defs>
</svg>
